<?xml version="1.0" encoding="UTF-8" standalone="no"?>
<!DOCTYPE svg PUBLIC "-//W3C//DTD SVG 1.1//EN" "http://www.w3.org/Graphics/SVG/1.1/DTD/svg11.dtd">
<svg version="1.1" xmlns="http://www.w3.org/2000/svg" xmlns:xlink="http://www.w3.org/1999/xlink" preserveAspectRatio="xMidYMid meet" viewBox="0 0 28 28" width="28" height="28"><defs><path d="M26 14C26 20.62 20.62 26 14 26C7.38 26 2 20.62 2 14C2 7.38 7.38 2 14 2C20.62 2 26 7.38 26 14Z" id="c6ex7u8l8z"></path><path d="M20.95 10.19L21.03 10.26L21.09 10.34L21.14 10.42L21.18 10.51L21.2 10.6L21.21 10.7L21.21 10.8L21.19 10.9L21.16 10.99L21.11 11.09L20.73 11.79L21.06 12.18L21.47 12.82L21.81 13.54L21.99 14.08L22.86 14.08L22.96 14.1L23.06 14.14L23.13 14.18L23.21 14.25L23.28 14.31L23.33 14.39L23.38 14.48L23.41 14.58L23.43 14.68L23.44 14.77L23.44 17.04L23.43 17.14L23.41 17.24L23.38 17.33L23.33 17.42L23.28 17.5L23.21 17.57L23.13 17.63L23.06 17.67L22.96 17.71L22.86 17.73L22.77 17.74L21.99 17.74L21.81 18.28L21.47 18.99L21.06 19.64L20.73 20.02L21.11 20.73L21.16 20.82L21.19 20.92L21.21 21.02L21.21 21.12L21.2 21.21L21.18 21.31L21.14 21.4L21.09 21.48L21.03 21.56L20.95 21.63L20.87 21.69L19.01 22.82L18.91 22.86L18.82 22.89L18.72 22.91L18.63 22.91L18.54 22.9L18.45 22.87L18.36 22.83L18.28 22.78L18.21 22.72L18.14 22.65L18.09 22.56L17.7 21.85L17.23 21.95L16.44 22.01L15.64 21.95L15.18 21.85L14.79 22.56L14.73 22.65L14.66 22.72L14.6 22.78L14.51 22.83L14.43 22.87L14.34 22.9L14.24 22.91L14.15 22.91L14.05 22.89L13.96 22.86L13.87 22.82L12.01 21.69L11.92 21.63L11.84 21.56L11.78 21.48L11.74 21.4L11.7 21.31L11.68 21.21L11.66 21.12L11.67 21.02L11.68 20.92L11.71 20.82L11.76 20.73L12.14 20.02L11.81 19.64L11.4 18.99L11.07 18.28L10.88 17.74L10.11 17.74L10.01 17.73L9.91 17.71L9.82 17.67L9.74 17.63L9.67 17.57L9.6 17.5L9.54 17.42L9.5 17.33L9.47 17.24L9.45 17.14L9.44 17.1L9.94 17.16L11.31 17L12.58 16.55L13.69 15.84L14.19 15.33L14.11 15.91L14.22 16.68L14.55 17.35L15.06 17.88L15.7 18.23L16.44 18.35L17.17 18.23L17.81 17.88L18.33 17.35L18.65 16.68L18.77 15.91L18.65 15.14L18.33 14.47L17.81 13.94L17.17 13.59L16.44 13.46L15.7 13.59L15.33 13.79L15.78 12.53L15.94 11.16L15.79 9.85L16.44 9.8L17.23 9.86L17.7 9.96L18.09 9.26L18.14 9.17L18.21 9.1L18.28 9.03L18.36 8.98L18.45 8.95L18.54 8.92L18.63 8.91L18.72 8.91L18.82 8.92L18.91 8.95L18.91 8.95L19.01 8.99L20.87 10.13L20.95 10.19Z" id="c1Zy3flIr"></path><path d="M20.95 10.19L21.03 10.26L21.09 10.34L21.14 10.42L21.18 10.51L21.2 10.6L21.21 10.7L21.21 10.8L21.19 10.9L21.16 10.99L21.11 11.09L20.73 11.79L21.06 12.18L21.47 12.82L21.81 13.54L21.99 14.08L22.86 14.08L22.96 14.1L23.06 14.14L23.13 14.18L23.21 14.25L23.28 14.31L23.33 14.39L23.38 14.48L23.41 14.58L23.43 14.68L23.44 14.77L23.44 17.04L23.43 17.14L23.41 17.24L23.38 17.33L23.33 17.42L23.28 17.5L23.21 17.57L23.13 17.63L23.06 17.67L22.96 17.71L22.86 17.73L22.77 17.74L21.99 17.74L21.81 18.28L21.47 18.99L21.06 19.64L20.73 20.02L21.11 20.73L21.16 20.82L21.19 20.92L21.21 21.02L21.21 21.12L21.2 21.21L21.18 21.31L21.14 21.4L21.09 21.48L21.03 21.56L20.95 21.63L20.87 21.69L19.01 22.82L18.91 22.86L18.82 22.89L18.72 22.91L18.63 22.91L18.54 22.9L18.45 22.87L18.36 22.83L18.28 22.78L18.21 22.72L18.14 22.65L18.09 22.56L17.7 21.85L17.23 21.95L16.44 22.01L15.64 21.95L15.18 21.85L14.79 22.56L14.73 22.65L14.66 22.72L14.6 22.78L14.51 22.83L14.43 22.87L14.34 22.9L14.24 22.91L14.15 22.91L14.05 22.89L13.96 22.86L13.87 22.82L12.01 21.69L11.92 21.63L11.84 21.56L11.78 21.48L11.74 21.4L11.7 21.31L11.68 21.21L11.66 21.12L11.67 21.02L11.68 20.92L11.71 20.82L11.76 20.73L12.14 20.02L11.81 19.64L11.4 18.99L11.07 18.28L10.88 17.74L10.11 17.74L10.01 17.73L9.91 17.71L9.82 17.67L9.74 17.63L9.67 17.57L9.6 17.5L9.54 17.42L9.5 17.33L9.47 17.24L9.45 17.14L9.44 17.1L9.94 17.16L11.31 17L12.58 16.55L13.69 15.84L14.19 15.33L14.11 15.91L14.22 16.68L14.55 17.35L15.06 17.88L15.7 18.23L16.44 18.35L17.17 18.23L17.81 17.88L18.33 17.35L18.65 16.68L18.77 15.91L18.65 15.14L18.33 14.47L17.81 13.94L17.17 13.59L16.44 13.46L15.7 13.59L15.33 13.79L15.78 12.53L15.94 11.16L15.79 9.85L16.44 9.8L17.23 9.86L17.7 9.96L18.09 9.26L18.14 9.17L18.21 9.1L18.28 9.03L18.36 8.98L18.45 8.95L18.54 8.92L18.63 8.91L18.72 8.91L18.82 8.92L18.91 8.95L18.91 8.95L19.01 8.99L20.87 10.13L20.95 10.19Z" id="fe1bf0Opz"></path><path d="M20.95 10.19L21.03 10.26L21.09 10.34L21.14 10.42L21.18 10.51L21.2 10.6L21.21 10.7L21.21 10.8L21.19 10.9L21.16 10.99L21.11 11.09L20.73 11.79L21.06 12.18L21.47 12.82L21.81 13.54L21.99 14.08L22.86 14.08L22.96 14.1L23.06 14.14L23.13 14.18L23.21 14.25L23.28 14.31L23.33 14.39L23.38 14.48L23.41 14.58L23.43 14.68L23.44 14.77L23.44 17.04L23.43 17.14L23.41 17.24L23.38 17.33L23.33 17.42L23.28 17.5L23.21 17.57L23.13 17.63L23.06 17.67L22.96 17.71L22.86 17.73L22.77 17.74L21.99 17.74L21.81 18.28L21.47 18.99L21.06 19.64L20.73 20.02L21.11 20.73L21.16 20.82L21.19 20.92L21.21 21.02L21.21 21.12L21.2 21.21L21.18 21.31L21.14 21.4L21.09 21.48L21.03 21.56L20.95 21.63L20.87 21.69L19.01 22.82L18.91 22.86L18.82 22.89L18.72 22.91L18.63 22.91L18.54 22.9L18.45 22.87L18.36 22.83L18.28 22.78L18.21 22.72L18.14 22.65L18.09 22.56L17.7 21.85L17.23 21.95L16.44 22.01L15.64 21.95L15.18 21.85L14.79 22.56L14.73 22.65L14.66 22.72L14.6 22.78L14.51 22.83L14.43 22.87L14.34 22.9L14.24 22.91L14.15 22.91L14.05 22.89L13.96 22.86L13.87 22.82L12.01 21.69L11.92 21.63L11.84 21.56L11.78 21.48L11.74 21.4L11.7 21.31L11.68 21.21L11.66 21.12L11.67 21.02L11.68 20.92L11.71 20.82L11.76 20.73L12.14 20.02L11.81 19.64L11.4 18.99L11.07 18.28L10.88 17.74L10.11 17.74L10.01 17.73L9.91 17.71L9.82 17.67L9.74 17.63L9.67 17.57L9.6 17.5L9.54 17.42L9.5 17.33L9.47 17.24L9.45 17.14L9.44 17.1L9.94 17.16L11.31 17L12.58 16.55L13.69 15.84L14.19 15.33L14.11 15.91L14.22 16.68L14.55 17.35L15.06 17.88L15.7 18.23L16.44 18.35L17.17 18.23L17.81 17.88L18.33 17.35L18.65 16.68L18.77 15.91L18.65 15.14L18.33 14.47L17.81 13.94L17.17 13.59L16.44 13.46L15.7 13.59L15.33 13.79L15.78 12.53L15.94 11.16L15.79 9.85L16.44 9.8L17.23 9.86L17.7 9.96L18.09 9.26L18.14 9.17L18.21 9.1L18.28 9.03L18.36 8.98L18.45 8.95L18.54 8.92L18.63 8.91L18.72 8.91L18.82 8.92L18.91 8.95L18.91 8.95L19.01 8.99L20.87 10.13L20.95 10.19Z" id="e5r0V1wziW"></path><path d="M20.95 10.19L21.03 10.26L21.09 10.34L21.14 10.42L21.18 10.51L21.2 10.6L21.21 10.7L21.21 10.8L21.19 10.9L21.16 10.99L21.11 11.09L20.73 11.79L21.06 12.18L21.47 12.82L21.81 13.54L21.99 14.08L22.86 14.08L22.96 14.1L23.06 14.14L23.13 14.18L23.21 14.25L23.28 14.31L23.33 14.39L23.38 14.48L23.41 14.58L23.43 14.68L23.44 14.77L23.44 17.04L23.43 17.14L23.41 17.24L23.38 17.33L23.33 17.42L23.28 17.5L23.21 17.57L23.13 17.63L23.06 17.67L22.96 17.71L22.86 17.73L22.77 17.74L21.99 17.74L21.81 18.28L21.47 18.99L21.06 19.64L20.73 20.02L21.11 20.73L21.16 20.82L21.19 20.92L21.21 21.02L21.21 21.12L21.2 21.21L21.18 21.31L21.14 21.4L21.09 21.48L21.03 21.56L20.95 21.63L20.87 21.69L19.01 22.82L18.91 22.86L18.82 22.89L18.72 22.91L18.63 22.91L18.54 22.9L18.45 22.87L18.36 22.83L18.28 22.78L18.21 22.72L18.14 22.65L18.09 22.56L17.7 21.85L17.23 21.95L16.44 22.01L15.64 21.95L15.18 21.85L14.79 22.56L14.73 22.65L14.66 22.72L14.6 22.78L14.51 22.83L14.43 22.87L14.34 22.9L14.24 22.91L14.15 22.91L14.05 22.89L13.96 22.86L13.87 22.82L12.01 21.69L11.92 21.63L11.84 21.56L11.78 21.48L11.74 21.4L11.7 21.31L11.68 21.21L11.66 21.12L11.67 21.02L11.68 20.92L11.71 20.82L11.76 20.73L12.14 20.02L11.81 19.64L11.4 18.99L11.07 18.28L10.88 17.74L10.11 17.74L10.01 17.73L9.91 17.71L9.82 17.67L9.74 17.63L9.67 17.57L9.6 17.5L9.54 17.42L9.5 17.33L9.47 17.24L9.45 17.14L9.44 17.1L9.94 17.16L11.31 17L12.58 16.55L13.69 15.84L14.19 15.33L14.11 15.91L14.22 16.68L14.55 17.35L15.06 17.88L15.7 18.23L16.44 18.35L17.17 18.23L17.81 17.88L18.33 17.35L18.65 16.68L18.77 15.91L18.65 15.14L18.33 14.47L17.81 13.94L17.17 13.59L16.44 13.46L15.7 13.59L15.33 13.79L15.78 12.53L15.94 11.16L15.79 9.85L16.44 9.8L17.23 9.86L17.7 9.96L18.09 9.26L18.14 9.17L18.21 9.1L18.28 9.03L18.36 8.98L18.45 8.95L18.54 8.92L18.63 8.91L18.72 8.91L18.82 8.92L18.91 8.95L18.91 8.95L19.01 8.99L20.87 10.13L20.95 10.19Z" id="ajdajQJtG"></path><path d="M8.44 6.22L8.5 6.24L8.56 6.28L8.61 6.32L8.66 6.38L8.7 6.44L8.97 6.94L9.31 6.87L9.88 6.83L10.44 6.87L10.78 6.94L11.05 6.44L11.09 6.38L11.14 6.32L11.19 6.28L11.25 6.24L11.31 6.22L11.38 6.2L11.44 6.19L11.51 6.19L11.58 6.2L11.64 6.22L11.71 6.25L13.04 7.06L13.1 7.1L13.16 7.15L13.2 7.21L13.26 7.33L13.28 7.4L13.29 7.47L13.27 7.61L13.25 7.68L13.22 7.75L12.94 8.25L13.18 8.52L13.47 8.99L13.71 9.49L13.84 9.88L14.47 9.88L14.54 9.9L14.66 9.96L14.71 10L14.76 10.05L14.8 10.11L14.83 10.17L14.87 10.31L14.88 10.38L14.88 12L14.87 12.07L14.83 12.21L14.8 12.27L14.76 12.33L14.71 12.37L14.66 12.42L14.54 12.48L14.47 12.49L14.39 12.5L13.84 12.5L13.71 12.89L13.47 13.39L13.18 13.85L12.94 14.13L13.22 14.63L13.25 14.7L13.27 14.77L13.29 14.91L13.28 14.98L13.26 15.05L13.2 15.17L13.16 15.23L13.1 15.27L13.04 15.32L11.71 16.12L11.64 16.15L11.58 16.18L11.51 16.19L11.44 16.19L11.38 16.18L11.31 16.16L11.25 16.14L11.19 16.1L11.14 16.06L11.09 16L11.05 15.94L10.78 15.43L10.44 15.51L9.88 15.55L9.31 15.51L8.97 15.43L8.7 15.94L8.66 16L8.61 16.06L8.56 16.1L8.5 16.14L8.44 16.16L8.37 16.18L8.31 16.19L8.24 16.19L8.17 16.18L8.11 16.15L8.04 16.12L6.71 15.32L6.65 15.27L6.59 15.23L6.55 15.17L6.49 15.05L6.47 14.98L6.46 14.91L6.48 14.77L6.5 14.7L6.53 14.63L6.81 14.13L6.57 13.85L6.28 13.39L6.04 12.89L5.91 12.5L5.36 12.5L5.28 12.49L5.21 12.48L5.09 12.42L5.04 12.37L4.99 12.33L4.95 12.27L4.92 12.21L4.88 12.07L4.88 10.31L4.92 10.17L4.95 10.11L4.99 10.05L5.04 10L5.09 9.96L5.21 9.9L5.28 9.88L5.91 9.88L6.04 9.49L6.28 8.99L6.57 8.52L6.81 8.25L6.53 7.75L6.5 7.68L6.48 7.61L6.46 7.47L6.47 7.4L6.49 7.33L6.55 7.21L6.59 7.15L6.65 7.1L6.71 7.06L8.04 6.25L8.11 6.22L8.17 6.2L8.24 6.19L8.31 6.19L8.37 6.2L8.44 6.22ZM8.89 9.78L8.53 10.16L8.29 10.64L8.21 11.19L8.29 11.74L8.53 12.22L8.89 12.6L9.35 12.85L9.88 12.93L10.4 12.85L10.86 12.6L11.22 12.22L11.46 11.74L11.54 11.19L11.46 10.64L11.22 10.16L10.86 9.78L10.4 9.53L9.88 9.44L9.35 9.53L8.89 9.78Z" id="cgh4aEb1m"></path><path d="M8.44 6.22L8.5 6.24L8.56 6.28L8.61 6.32L8.66 6.38L8.7 6.44L8.97 6.94L9.31 6.87L9.88 6.83L10.44 6.87L10.78 6.94L11.05 6.44L11.09 6.38L11.14 6.32L11.19 6.28L11.25 6.24L11.31 6.22L11.38 6.2L11.44 6.19L11.51 6.19L11.58 6.2L11.64 6.22L11.71 6.25L13.04 7.06L13.1 7.1L13.16 7.15L13.2 7.21L13.26 7.33L13.28 7.4L13.29 7.47L13.27 7.61L13.25 7.68L13.22 7.75L12.94 8.25L13.18 8.52L13.47 8.99L13.71 9.49L13.84 9.88L14.47 9.88L14.54 9.9L14.66 9.96L14.71 10L14.76 10.05L14.8 10.11L14.83 10.17L14.87 10.31L14.88 10.38L14.88 12L14.87 12.07L14.83 12.21L14.8 12.27L14.76 12.33L14.71 12.37L14.66 12.42L14.54 12.48L14.47 12.49L14.39 12.5L13.84 12.5L13.71 12.89L13.47 13.39L13.18 13.85L12.94 14.13L13.22 14.63L13.25 14.7L13.27 14.77L13.29 14.91L13.28 14.98L13.26 15.05L13.2 15.17L13.16 15.23L13.1 15.27L13.04 15.32L11.71 16.12L11.64 16.15L11.58 16.18L11.51 16.19L11.44 16.19L11.38 16.18L11.31 16.16L11.25 16.14L11.19 16.1L11.14 16.06L11.09 16L11.05 15.94L10.78 15.43L10.44 15.51L9.88 15.55L9.31 15.51L8.97 15.43L8.7 15.94L8.66 16L8.61 16.06L8.56 16.1L8.5 16.14L8.44 16.16L8.37 16.18L8.31 16.19L8.24 16.19L8.17 16.18L8.11 16.15L8.04 16.12L6.71 15.32L6.65 15.27L6.59 15.23L6.55 15.17L6.49 15.05L6.47 14.98L6.46 14.91L6.48 14.77L6.5 14.7L6.53 14.63L6.81 14.13L6.57 13.85L6.28 13.39L6.04 12.89L5.91 12.5L5.36 12.5L5.28 12.49L5.21 12.48L5.09 12.42L5.04 12.37L4.99 12.33L4.95 12.27L4.92 12.21L4.88 12.07L4.88 10.31L4.92 10.17L4.95 10.11L4.99 10.05L5.04 10L5.09 9.96L5.21 9.9L5.28 9.88L5.91 9.88L6.04 9.49L6.28 8.99L6.57 8.52L6.81 8.25L6.53 7.75L6.5 7.68L6.48 7.61L6.46 7.47L6.47 7.4L6.49 7.33L6.55 7.21L6.59 7.15L6.65 7.1L6.71 7.06L8.04 6.25L8.11 6.22L8.17 6.2L8.24 6.19L8.31 6.19L8.37 6.2L8.44 6.22ZM8.89 9.78L8.53 10.16L8.29 10.64L8.21 11.19L8.29 11.74L8.53 12.22L8.89 12.6L9.35 12.85L9.88 12.93L10.4 12.85L10.86 12.6L11.22 12.22L11.46 11.74L11.54 11.19L11.46 10.64L11.22 10.16L10.86 9.78L10.4 9.53L9.88 9.44L9.35 9.53L8.89 9.78Z" id="e43vUPscC"></path><path d="M8.44 6.22L8.5 6.24L8.56 6.28L8.61 6.32L8.66 6.38L8.7 6.44L8.97 6.94L9.31 6.87L9.88 6.83L10.44 6.87L10.78 6.94L11.05 6.44L11.09 6.38L11.14 6.32L11.19 6.28L11.25 6.24L11.31 6.22L11.38 6.2L11.44 6.19L11.51 6.19L11.58 6.2L11.64 6.22L11.71 6.25L13.04 7.06L13.1 7.1L13.16 7.15L13.2 7.21L13.26 7.33L13.28 7.4L13.29 7.47L13.27 7.61L13.25 7.68L13.22 7.75L12.94 8.25L13.18 8.52L13.47 8.99L13.71 9.49L13.84 9.88L14.47 9.88L14.54 9.9L14.66 9.96L14.71 10L14.76 10.05L14.8 10.11L14.83 10.17L14.87 10.31L14.88 10.38L14.88 12L14.87 12.07L14.83 12.21L14.8 12.27L14.76 12.33L14.71 12.37L14.66 12.42L14.54 12.48L14.47 12.49L14.39 12.5L13.84 12.5L13.71 12.89L13.47 13.39L13.18 13.85L12.94 14.13L13.22 14.63L13.25 14.7L13.27 14.77L13.29 14.91L13.28 14.98L13.26 15.05L13.2 15.17L13.16 15.23L13.1 15.27L13.04 15.32L11.71 16.12L11.64 16.15L11.58 16.18L11.51 16.19L11.44 16.19L11.38 16.18L11.31 16.16L11.25 16.14L11.19 16.1L11.14 16.06L11.09 16L11.05 15.94L10.78 15.43L10.44 15.51L9.88 15.55L9.31 15.51L8.97 15.43L8.7 15.94L8.66 16L8.61 16.06L8.56 16.1L8.5 16.14L8.44 16.16L8.37 16.18L8.31 16.19L8.24 16.19L8.17 16.18L8.11 16.15L8.04 16.12L6.71 15.32L6.65 15.27L6.59 15.23L6.55 15.17L6.49 15.05L6.47 14.98L6.46 14.91L6.48 14.77L6.5 14.7L6.53 14.63L6.81 14.13L6.57 13.85L6.28 13.39L6.04 12.89L5.91 12.5L5.36 12.5L5.28 12.49L5.21 12.48L5.09 12.42L5.04 12.37L4.99 12.33L4.95 12.27L4.92 12.21L4.88 12.07L4.88 10.31L4.92 10.17L4.95 10.11L4.99 10.05L5.04 10L5.09 9.96L5.21 9.9L5.28 9.88L5.91 9.88L6.04 9.49L6.28 8.99L6.57 8.52L6.81 8.25L6.53 7.75L6.5 7.68L6.48 7.61L6.46 7.47L6.47 7.4L6.49 7.33L6.55 7.21L6.59 7.15L6.65 7.1L6.71 7.06L8.04 6.25L8.11 6.22L8.17 6.2L8.24 6.19L8.31 6.19L8.37 6.2L8.44 6.22ZM8.89 9.78L8.53 10.16L8.29 10.64L8.21 11.19L8.29 11.74L8.53 12.22L8.89 12.6L9.35 12.85L9.88 12.93L10.4 12.85L10.86 12.6L11.22 12.22L11.46 11.74L11.54 11.19L11.46 10.64L11.22 10.16L10.86 9.78L10.4 9.53L9.88 9.44L9.35 9.53L8.89 9.78Z" id="c2O4R2RGKk"></path><path d="M8.44 6.22L8.5 6.24L8.56 6.28L8.61 6.32L8.66 6.38L8.7 6.44L8.97 6.94L9.31 6.87L9.88 6.83L10.44 6.87L10.78 6.94L11.05 6.44L11.09 6.38L11.14 6.32L11.19 6.28L11.25 6.24L11.31 6.22L11.38 6.2L11.44 6.19L11.51 6.19L11.58 6.2L11.64 6.22L11.71 6.25L13.04 7.06L13.1 7.1L13.16 7.15L13.2 7.21L13.26 7.33L13.28 7.4L13.29 7.47L13.27 7.61L13.25 7.68L13.22 7.75L12.94 8.25L13.18 8.52L13.47 8.99L13.71 9.49L13.84 9.88L14.47 9.88L14.54 9.9L14.66 9.96L14.71 10L14.76 10.05L14.8 10.11L14.83 10.17L14.87 10.31L14.88 10.38L14.88 12L14.87 12.07L14.83 12.21L14.8 12.27L14.76 12.33L14.71 12.37L14.66 12.42L14.54 12.48L14.47 12.49L14.39 12.5L13.84 12.5L13.71 12.89L13.47 13.39L13.18 13.85L12.94 14.13L13.22 14.63L13.25 14.7L13.27 14.77L13.29 14.91L13.28 14.98L13.26 15.05L13.2 15.17L13.16 15.23L13.1 15.27L13.04 15.32L11.71 16.12L11.64 16.15L11.58 16.18L11.51 16.19L11.44 16.19L11.38 16.18L11.31 16.16L11.25 16.14L11.19 16.1L11.14 16.06L11.09 16L11.05 15.94L10.78 15.43L10.44 15.51L9.88 15.55L9.31 15.51L8.97 15.43L8.7 15.94L8.66 16L8.61 16.06L8.56 16.1L8.5 16.14L8.44 16.16L8.37 16.18L8.31 16.19L8.24 16.19L8.17 16.18L8.11 16.15L8.04 16.12L6.71 15.32L6.65 15.27L6.59 15.23L6.55 15.17L6.49 15.05L6.47 14.98L6.46 14.91L6.48 14.77L6.5 14.7L6.53 14.63L6.81 14.13L6.57 13.85L6.28 13.39L6.04 12.89L5.91 12.5L5.36 12.5L5.28 12.49L5.21 12.48L5.09 12.42L5.04 12.37L4.99 12.33L4.95 12.27L4.92 12.21L4.88 12.07L4.88 10.31L4.92 10.17L4.95 10.11L4.99 10.05L5.04 10L5.09 9.96L5.21 9.9L5.28 9.88L5.91 9.88L6.04 9.49L6.28 8.99L6.57 8.52L6.81 8.25L6.53 7.75L6.5 7.68L6.48 7.61L6.46 7.47L6.47 7.4L6.49 7.33L6.55 7.21L6.59 7.15L6.65 7.1L6.71 7.06L8.04 6.25L8.11 6.22L8.17 6.2L8.24 6.19L8.31 6.19L8.37 6.2L8.44 6.22ZM8.89 9.78L8.53 10.16L8.29 10.64L8.21 11.19L8.29 11.74L8.53 12.22L8.89 12.6L9.35 12.85L9.88 12.93L10.4 12.85L10.86 12.6L11.22 12.22L11.46 11.74L11.54 11.19L11.46 10.64L11.22 10.16L10.86 9.78L10.4 9.53L9.88 9.44L9.35 9.53L8.89 9.78Z" id="b3MbG6bR54"></path></defs><g><g><g><use xlink:href="#c6ex7u8l8z" opacity="1" fill="#d26110" fill-opacity="1"></use><g><use xlink:href="#c6ex7u8l8z" opacity="1" fill-opacity="0" stroke="#000000" stroke-width="1" stroke-opacity="0"></use></g></g><g><use xlink:href="#c1Zy3flIr" opacity="1" fill="#ffffff" fill-opacity="1"></use><g><use xlink:href="#c1Zy3flIr" opacity="1" fill-opacity="0" stroke="#000000" stroke-width="1" stroke-opacity="0"></use></g></g><g><use xlink:href="#fe1bf0Opz" opacity="1" fill="#000000" fill-opacity="0"></use><g><use xlink:href="#fe1bf0Opz" opacity="1" fill-opacity="0" stroke="#000000" stroke-width="1" stroke-opacity="0"></use></g></g><g><use xlink:href="#e5r0V1wziW" opacity="1" fill="#000000" fill-opacity="0"></use><g><use xlink:href="#e5r0V1wziW" opacity="1" fill-opacity="0" stroke="#000000" stroke-width="1" stroke-opacity="0"></use></g></g><g><use xlink:href="#ajdajQJtG" opacity="1" fill="#000000" fill-opacity="0"></use><g><use xlink:href="#ajdajQJtG" opacity="1" fill-opacity="0" stroke="#000000" stroke-width="1" stroke-opacity="0"></use></g></g><g><use xlink:href="#cgh4aEb1m" opacity="1" fill="#ffffff" fill-opacity="1"></use><g><use xlink:href="#cgh4aEb1m" opacity="1" fill-opacity="0" stroke="#000000" stroke-width="1" stroke-opacity="0"></use></g></g><g><use xlink:href="#e43vUPscC" opacity="1" fill="#000000" fill-opacity="0"></use><g><use xlink:href="#e43vUPscC" opacity="1" fill-opacity="0" stroke="#000000" stroke-width="1" stroke-opacity="0"></use></g></g><g><use xlink:href="#c2O4R2RGKk" opacity="1" fill="#000000" fill-opacity="0"></use><g><use xlink:href="#c2O4R2RGKk" opacity="1" fill-opacity="0" stroke="#000000" stroke-width="1" stroke-opacity="0"></use></g></g><g><use xlink:href="#b3MbG6bR54" opacity="1" fill="#000000" fill-opacity="0"></use><g><use xlink:href="#b3MbG6bR54" opacity="1" fill-opacity="0" stroke="#000000" stroke-width="1" stroke-opacity="0"></use></g></g></g></g></svg>