<?xml version="1.0" encoding="UTF-8" standalone="no"?>
<!DOCTYPE svg PUBLIC "-//W3C//DTD SVG 1.1//EN" "http://www.w3.org/Graphics/SVG/1.1/DTD/svg11.dtd">
<svg version="1.1" xmlns="http://www.w3.org/2000/svg" xmlns:xlink="http://www.w3.org/1999/xlink" preserveAspectRatio="xMidYMid meet" viewBox="0 0 28 28" width="28" height="28"><defs><path d="M14 26C7.38 26 2 20.62 2 14C2 7.38 7.38 2 14 2C20.62 2 26 7.38 26 14C26 20.62 20.62 26 14 26Z" id="a1zzA3JSCA"></path><path d="M11.37 5.3L11.48 5.34L11.59 5.41L11.68 5.49L11.77 5.58L11.84 5.69L12.35 6.57L12.96 6.44L14 6.37L15.04 6.44L15.65 6.57L16.16 5.69L16.23 5.58L16.32 5.49L16.41 5.41L16.52 5.34L16.63 5.3L16.75 5.27L16.87 5.25L16.99 5.25L17.12 5.27L17.24 5.31L17.36 5.36L19.8 6.78L19.91 6.85L20.01 6.94L20.09 7.04L20.15 7.14L20.2 7.25L20.23 7.37L20.25 7.49L20.24 7.62L20.22 7.74L20.18 7.86L20.12 7.98L19.62 8.86L20.05 9.34L20.59 10.15L21.03 11.04L21.27 11.72L22.28 11.72L22.41 11.72L22.54 11.75L22.66 11.8L22.76 11.85L22.86 11.93L22.95 12.01L23.02 12.11L23.08 12.22L23.12 12.34L23.15 12.47L23.16 12.59L23.16 15.42L23.15 15.55L23.12 15.67L23.08 15.79L23.02 15.9L22.95 16L22.86 16.08L22.76 16.16L22.66 16.21L22.54 16.26L22.41 16.29L22.28 16.3L21.27 16.3L21.03 16.98L20.59 17.86L20.05 18.67L19.62 19.15L20.12 20.04L20.18 20.15L20.22 20.28L20.24 20.4L20.25 20.52L20.23 20.64L20.2 20.76L20.15 20.87L20.09 20.98L20.01 21.08L19.91 21.16L19.8 21.24L17.36 22.65L17.24 22.7L17.12 22.74L16.99 22.76L16.87 22.76L16.75 22.75L16.63 22.72L16.52 22.67L16.41 22.6L16.32 22.53L16.23 22.44L16.16 22.33L15.65 21.44L15.04 21.57L14 21.64L12.96 21.57L12.35 21.44L11.84 22.33L11.77 22.44L11.68 22.53L11.59 22.6L11.48 22.67L11.37 22.72L11.25 22.75L11.13 22.76L11.01 22.76L10.88 22.74L10.76 22.7L10.64 22.65L8.2 21.24L8.09 21.16L7.99 21.08L7.91 20.98L7.85 20.87L7.8 20.76L7.77 20.64L7.75 20.52L7.76 20.4L7.78 20.28L7.82 20.15L7.88 20.04L8.38 19.15L7.95 18.67L7.41 17.86L6.97 16.98L6.73 16.3L5.72 16.3L5.59 16.29L5.46 16.26L5.34 16.21L5.24 16.16L5.14 16.08L5.05 16L4.98 15.9L4.92 15.79L4.88 15.67L4.85 15.55L4.84 15.42L4.84 12.59L4.85 12.47L4.88 12.34L4.92 12.22L4.98 12.11L5.05 12.01L5.14 11.93L5.24 11.85L5.34 11.8L5.46 11.75L5.59 11.72L5.72 11.72L6.73 11.72L6.97 11.04L7.41 10.15L7.95 9.34L8.38 8.86L7.88 7.98L7.82 7.86L7.78 7.74L7.76 7.62L7.75 7.49L7.77 7.37L7.8 7.25L7.85 7.14L7.91 7.04L7.99 6.94L8.09 6.85L8.2 6.78L10.64 5.36L10.76 5.31L10.88 5.27L11.01 5.25L11.13 5.25L11.25 5.27L11.37 5.3ZM12.2 11.54L11.53 12.21L11.1 13.05L10.95 14.01L11.1 14.97L11.53 15.81L12.2 16.47L13.04 16.91L14 17.06L14.96 16.91L15.8 16.47L16.47 15.81L16.9 14.97L17.05 14.01L16.9 13.05L16.47 12.21L15.8 11.54L14.96 11.11L14 10.95L13.04 11.11L12.2 11.54Z" id="hIfelLPxD"></path></defs><g><g><g><use xlink:href="#a1zzA3JSCA" opacity="1" fill="#2da78c" fill-opacity="1"></use><g><use xlink:href="#a1zzA3JSCA" opacity="1" fill-opacity="0" stroke="#000000" stroke-width="1" stroke-opacity="0"></use></g></g><g><use xlink:href="#hIfelLPxD" opacity="1" fill="#ffffff" fill-opacity="1"></use><g><use xlink:href="#hIfelLPxD" opacity="1" fill-opacity="0" stroke="#000000" stroke-width="1" stroke-opacity="0"></use></g></g></g></g></svg>